# xmcd CD database file
#
# Track frame offsets:
#	150
#	20597
#	45267
#	65435
#
# Disc length: 1203 seconds
#
# Revision: 0
# Processed by: cddbd v1.5.1PL0 Copyright (c) Steve Scherf et al.
# Submitted via: CDex 1.51
#
DISCID=2904b104
DTITLE=trf - Happening Here
DYEAR=1995
DGENRE=JPop
TTITLE0=Happening Here
TTITLE1=teens
TTITLE2=Happening Here(Instrumental)
TTITLE3=teens(Instrumental)
EXTD=YEAR: 1995
EXTT0=
EXTT1=
EXTT2=
EXTT3=
PLAYORDER=
